# xmcd CD database file
#
# Track frame offsets:
#	150
#	31168
#	57664
#	88768
#	117569
#	150691
#	178879
#	206564
#	242276
#	265315
#	283676
#	317157
#
# Disc length: 4595 seconds
#
# Revision: 0
# Processed by: cddbd v1.5.2PL0 Copyright (c) Steve Scherf et al.
# Submitted via: CDex 1.70beta3
#
DISCID=ae11f10c
DTITLE=KYOTO JAZZ MASSIVE - Abstract Jazz Journey - Mixed and Selected by Kyoto Jazz Massive
DYEAR=2013
DGENRE=Jazz
TTITLE0=Lady Alma Project - Dreams (Exclusive Version)
TTITLE1=Shuya Okino feat. N'Dea Davenport - Look Ahead (Kyoto Jazz Massive Recreated)
TTITLE2=Blaze presents UDAUFL feat. Ultra Nat - A Wonderful Place (Kyoto Jazz Massive Recreated)
TTITLE3=Kerri Chandler feat. KT Brooks - Behold The Sun (Kaoz 6:23 Mix)
TTITLE4=Stephanie Cooke and Diephuis feat. Han Litz - Beautiful Life (Jose Carretas Son Liva Vocal Remix)
TTITLE5=Cookie Monsterz and Michelle Weeks - Spread Love (Richard Earnshaw Peoples Classic Remix)
TTITLE6=DJ Roland Clark presents Urban Soul feat. Ceybil Jefferies and Troyetta Knox - Love Is So Nice (Reelsoul Remix)
TTITLE7=Kerri Chandler feat. Jennifer Morrison - Let Him In (Kaoz 6:23 Mix)
TTITLE8=Carolyn Harding - Pick It Up (Sean McCabe Club Vocal Mix)
TTITLE9=Groove Assassin - Afrik Bounce (Original Mix)
TTITLE10=Steal Vybe feat. Stephanie Renee - Passion (In Me) (Ezels Remix)
TTITLE11=Bah Samba feat. Anna Cavazos - Lost Without You (Original Mix)
EXTD=YEAR: 2013
EXTT0=
EXTT1=
EXTT2=
EXTT3=
EXTT4=
EXTT5=
EXTT6=
EXTT7=
EXTT8=
EXTT9=
EXTT10=
EXTT11=
PLAYORDER=
